#!OML:ASF E:\Steps\Project 1\Capture day 1\Session 2\Subject.ASF
:FULLY-SPECIFIED
:DEGREES
358
root 9.39706 16.1333 19.1789 -156.705 -1.61547 180.251
lowerback -25.0077 -3.12559 -3.01681
upperback 1.24497 -3.6137 1.40179
thorax 15.8671 -2.00544 1.97189
lowerneck -5.44719 -1.66224 -0.029673
upperneck 16.3326 -1.9509 2.04842
head 5.84941 -0.546978 0.546357
rclavicle 3.09607e-014 -9.83984e-015
rhumerus -44.3783 -24.6456 -70.9248
rradius 27.5807
rwrist 4.04499
rhand -6.88933 -53.9198
rfingers 7.12502
rthumb 18.9773 276.986
lclavicle 3.09607e-014 -9.83984e-015
lhumerus -34.6235 7.23051 77.7953
lradius 29.8922
lwrist -1.93849
lhand -19.6153 -12.4692
lfingers 7.12502
lthumb 6.71117 17.4044
rfemur -34.4665 5.84646 19.7997
rtibia 12.9835
rfoot -11.4023 -5.6815
rtoes -26.2119
lfemur -26.5687 -5.3797 -18.5511
ltibia 55.0252
lfoot 5.48261 2.43853
ltoes -24.7909
359
root 9.42141 16.1381 19.0817 -156.712 -1.57592 180.306
lowerback -24.9658 -2.93732 -2.92202
upperback 1.22576 -3.37779 1.29487
thorax 15.7884 -1.88627 1.88596
lowerneck -5.41271 -1.80858 0.22511
upperneck 16.3086 -2.15632 1.91305
head 5.83398 -0.640784 0.448239
rclavicle 2.37051e-014 -5.86415e-015
rhumerus -44.255 -24.2296 -71.5205
rradius 28.1088
rwrist 3.4481
rhand -6.99258 -53.9848
rfingers 7.12502
rthumb 18.878 276.911
lclavicle 2.37051e-014 -5.86415e-015
lhumerus -34.8757 6.69213 77.9623
lradius 30.1436
lwrist -2.27021
lhand -19.3965 -12.5358
lfingers 7.12502
lthumb 6.92236 17.331
rfemur -33.9896 5.64113 20.1297
rtibia 12.8253
rfoot -11.6677 -5.37383
rtoes -26.135
lfemur -27.9512 -4.70444 -18.5984
ltibia 57.4079
lfoot 6.58637 2.95941
ltoes -24.5154
360
root 9.44309 16.1407 18.9879 -156.661 -1.49351 180.433
lowerback -24.9704 -2.75697 -2.73922
upperback 1.25495 -3.18353 1.2431
thorax 15.7984 -1.78125 1.79522
lowerneck -5.68103 -1.82329 0.196078
upperneck 16.4304 -2.18785 1.95694
head 5.91981 -0.652644 0.462783
rclavicle -3.57812e-015 -3.97569e-016
rhumerus -43.8405 -23.5164 -72.3169
rradius 28.6742
rwrist 2.59854
rhand -7.3403 -54.0887
rfingers 7.12502
rthumb 18.5435 276.775
lclavicle -3.57812e-015 -3.97569e-016
lhumerus -34.9777 6.33974 78.1705
lradius 30.3474
lwrist -2.53267
lhand -19.3157 -12.6748
lfingers 7.12502
lthumb 7.00041 17.1895
rfemur -33.6309 5.33957 20.5794
rtibia 12.7404
rfoot -11.9341 -4.93047
rtoes -26.9977
lfemur -29.3866 -4.06497 -18.6073
ltibia 59.5959
lfoot 7.6534 3.3707
ltoes -25.6925
361
root 9.46529 16.1455 18.8962 -156.745 -1.59498 180.569
lowerback -24.8515 -2.58382 -2.49904
upperback 1.31124 -3.00664 1.13959
thorax 15.7659 -1.67443 1.60819
lowerneck -5.75165 -1.83544 0.367668
upperneck 16.5864 -2.21208 1.94526
head 5.97935 -0.646661 0.429089
rclavicle -2.08724e-015 -1.53064e-014
rhumerus -43.5436 -23.0563 -73.0569
rradius 29.3
rwrist 1.89985
rhand -7.34981 -54.3613
rfingers 7.12502
rthumb 18.5344 276.502
lclavicle -2.08724e-015 -1.53064e-014
lhumerus -35.0381 5.77337 78.3133
lradius 30.5376
lwrist -2.59034
lhand -19.4483 -12.6631
lfingers 7.12502
lthumb 6.87244 17.2053
rfemur -33.0851 5.09321 21.0074
rtibia 12.6449
rfoot -12.3281 -4.60869
rtoes -27.7009
lfemur -30.6357 -3.64433 -18.5231
ltibia 61.5825
lfoot 8.12564 3.77747
ltoes -23.5825
362
root 9.48904 16.1528 18.8071 -156.925 -1.78074 180.566
lowerback -24.1606 -2.58509 -2.65745
upperback 1.14116 -2.99626 1.23647
thorax 15.1753 -1.68756 1.83875
lowerneck -5.55833 -1.85734 0.44752
upperneck 16.6883 -2.18483 1.66397
head 5.97339 -0.641246 0.331122
rclavicle 1.09829e-014 -2.18663e-015
rhumerus -43.4778 -22.2468 -73.4077
rradius 29.9173
rwrist 1.33627
rhand -7.39943 -54.8157
rfingers 7.12502
rthumb 18.4866 276.043
lclavicle 1.09829e-014 -2.18663e-015
lhumerus -35.5166 5.66695 78.6066
lradius 30.7573
lwrist -2.72933
lhand -19.5549 -12.8355
lfingers 7.12502
lthumb 6.76952 17.0363
rfemur -32.3309 4.83443 21.2609
rtibia 12.3412
rfoot -12.6056 -4.44263
rtoes -28.009
lfemur -31.8092 -3.38056 -18.5593
ltibia 63.5055
lfoot 7.67813 4.17485
ltoes -21.546
363
root 9.50889 16.1559 18.7096 -157.109 -1.63461 180.598
lowerback -24.1784 -2.52602 -2.60806
upperback 1.33992 -2.91297 1.20743
thorax 15.4157 -1.64203 1.80574
lowerneck -5.389 -1.84364 0.400264
upperneck 16.2279 -2.19003 1.69517
head 5.8004 -0.664196 0.348692
rclavicle -5.56597e-015 -7.95139e-016
rhumerus -42.6675 -21.4855 -74.1397
rradius 30.2901
rwrist 0.75376
rhand -7.52268 -54.6647
rfingers 7.12502
rthumb 18.3681 276.183
lclavicle -5.56597e-015 -7.95139e-016
lhumerus -35.435 5.94593 78.6932
lradius 30.8138
lwrist -3.05745
lhand -19.753 -13.1434
lfingers 7.12502
lthumb 6.57823 16.7344
rfemur -31.5011 4.82646 21.4692
rtibia 11.8682
rfoot -12.7578 -4.25483
rtoes -28.0369
lfemur -32.836 -2.85897 -18.7075
ltibia 65.0748
lfoot 6.80808 4.53606
ltoes -23.7417
364
root 9.53057 16.163 18.6226 -157.243 -1.48486 180.61
lowerback -23.9977 -2.3061 -2.61366
upperback 1.40305 -2.59455 1.06271
thorax 15.3591 -1.48975 1.76461
lowerneck -5.24565 -2.07179 0.590765
upperneck 15.9571 -2.54815 1.81906
head 5.69282 -0.826885 0.333842
rclavicle -1.23743e-014 2.3059e-014
rhumerus -42.2475 -21.3277 -74.5472
rradius 30.5516
rwrist 0.512658
rhand -7.55586 -54.434
rfingers 7.12502
rthumb 18.3361 276.41
lclavicle -1.23743e-014 2.3059e-014
lhumerus -35.3729 5.66877 78.7706
lradius 30.7902
lwrist -3.22533
lhand -19.9517 -13.2019
lfingers 7.12502
lthumb 6.38642 16.6818
rfemur -30.8264 5.00424 21.5808
rtibia 11.5201
rfoot -12.9181 -4.2441
rtoes -27.8079
lfemur -33.9885 -2.41047 -18.8547
ltibia 66.4829
lfoot 5.64246 5.08014
ltoes -25.5123
365
root 9.55046 16.1684 18.5373 -157.295 -1.39732 180.565
lowerback -24.1605 -2.20885 -2.67252
upperback 1.57988 -2.42191 0.989474
thorax 15.6563 -1.41261 1.77254
lowerneck -5.32986 -2.13331 0.603516
upperneck 15.9457 -2.63615 1.7929
head 5.70385 -0.872739 0.316908
rclavicle -1.93318e-014 1.19271e-015
rhumerus -41.4927 -21.2137 -74.9085
rradius 30.68
rwrist 0.633453
rhand -8.22997 -55.0929
rfingers 7.12502
rthumb 17.6875 275.692
lclavicle -1.93318e-014 1.19271e-015
lhumerus -35.13 5.83923 78.8634
lradius 30.7045
lwrist -3.3403
lhand -20.1726 -13.3663
lfingers 7.12502
lthumb 6.17314 16.5238
rfemur -30.2818 5.07488 21.6444
rtibia 11.2726
rfoot -13.0941 -4.19141
rtoes -27.5081
lfemur -35.2313 -2.11641 -19.0327
ltibia 67.6626
lfoot 4.45601 5.58713
ltoes -26.6201
366
root 9.5706 16.1764 18.4505 -157.362 -1.4044 180.463
lowerback -23.943 -2.2223 -2.77177
upperback 1.55199 -2.40903 0.945944
thorax 15.4975 -1.41121 1.78941
lowerneck -5.33884 -1.99561 0.512041
upperneck 16.2659 -2.40616 1.74228
head 5.80451 -0.754353 0.331592
rclavicle 8.29926e-015 -7.95139e-015
rhumerus -40.9913 -20.718 -75.2671
rradius 30.9182
rwrist 0.542721
rhand -9.08608 -56.2937
rfingers 7.12502
rthumb 16.8636 274.419
lclavicle 8.29926e-015 -7.95139e-015
lhumerus -35.3358 6.1758 78.8825
lradius 30.7959
lwrist -3.37015
lhand -20.4744 -13.2938
lfingers 7.12502
lthumb 5.88178 16.6046
rfemur -29.6755 4.89914 21.7191
rtibia 10.9905
rfoot -13.3572 -4.00177
rtoes -27.6001
lfemur -36.4329 -1.95813 -19.2261
ltibia 68.6391
lfoot 3.44725 5.79005
ltoes -28.4047
367
root 9.58985 16.1858 18.3649 -157.392 -1.35387 180.387
lowerback -24.0185 -2.22972 -3.01487
upperback 1.71963 -2.34278 0.998833
thorax 15.755 -1.40546 2.01237
lowerneck -5.40589 -1.97166 0.365264
upperneck 16.2485 -2.36248 1.73553
head 5.81195 -0.745058 0.355834
rclavicle -1.55052e-014 -4.17448e-015
rhumerus -40.0669 -20.1405 -75.6588
rradius 31.2277
rwrist 0.133798
rhand -9.62636 -57.2417
rfingers 7.12502
rthumb 16.3434 273.427
lclavicle -1.55052e-014 -4.17448e-015
lhumerus -35.1177 6.57699 79.1044
lradius 30.8959
lwrist -3.22065
lhand -20.6339 -13.1198
lfingers 7.12502
lthumb 5.72779 16.7828
rfemur -29.1555 4.5511 21.8624
rtibia 10.7612
rfoot -13.7373 -3.56533
rtoes -27.7802
lfemur -37.6518 -1.86763 -19.3782
ltibia 69.4011
lfoot 2.48332 5.94273
ltoes -28.2709
368
root 9.60749 16.1924 18.2762 -157.417 -1.32343 180.387
lowerback -23.8929 -2.15424 -3.18902
upperback 1.78176 -2.20025 1.0671
thorax 15.7586 -1.36046 2.24768
lowerneck -5.49534 -2.20486 0.261253
upperneck 16.1497 -2.69722 1.82346
head 5.80172 -0.914105 0.377332
rclavicle 8.72168e-015 -1.49089e-015
rhumerus -39.4656 -19.4724 -75.9685
rradius 31.7147
rwrist -0.497846
rhand -10.3922 -58.6014
rfingers 7.12502
rthumb 15.606 272.008
lclavicle 8.72168e-015 -1.49089e-015
lhumerus -34.96 6.90014 79.3383
lradius 30.8691
lwrist -3.0601
lhand -20.6531 -13.3639
lfingers 7.12502
lthumb 5.70929 16.5392
rfemur -28.5951 4.37016 22.0399
rtibia 10.4864
rfoot -14.0593 -3.30959
rtoes -27.3829
lfemur -38.8127 -1.8568 -19.4044
ltibia 69.8682
lfoot 1.77425 6.08244
ltoes -26.8602
369
root 9.62684 16.2008 18.1858 -157.471 -1.41175 180.41
lowerback -24.0222 -2.08061 -3.23593
upperback 1.9637 -2.07085 1.05119
thorax 16.0481 -1.30773 2.30174
lowerneck -5.76898 -2.04068 0.380843
upperneck 16.5085 -2.45661 1.70578
head 5.95658 -0.784621 0.334501
rclavicle 5.36719e-015 -6.4605e-015
rhumerus -38.8102 -19.2437 -76.2819
rradius 32.1368
rwrist -0.671442
rhand -7.99458 -54.0366
rfingers 7.12502
rthumb 17.9141 276.768
lclavicle 5.36719e-015 -6.4605e-015
lhumerus -34.6633 7.16184 79.4744
lradius 30.8467
lwrist -2.8079
lhand -20.8252 -13.3672
lfingers 7.12502
lthumb 5.54315 16.5403
rfemur -27.8974 4.3715 22.1916
rtibia 10.0333
rfoot -14.2284 -3.29518
rtoes -26.128
lfemur -39.9366 -1.89694 -19.3639
ltibia 70.2867
lfoot 1.04665 5.96998
ltoes -26.6641
